SplineFontDB: 3.2
FontName: Untitled1
FullName: Untitled1
FamilyName: Untitled1
Weight: Regular
Copyright: Copyright (c) 2022, Marco Túlio Castro
UComments: "2022-8-26: Created with FontForge (http://fontforge.org)"
Version: 001.000
ItalicAngle: 0
UnderlinePosition: -100
UnderlineWidth: 50
Ascent: 800
Descent: 200
InvalidEm: 0
LayerCount: 2
Layer: 0 0 "Back" 1
Layer: 1 0 "Fore" 0
XUID: [1021 435 -810659458 11610715]
StyleMap: 0x0000
FSType: 0
OS2Version: 0
OS2_WeightWidthSlopeOnly: 0
OS2_UseTypoMetrics: 1
CreationTime: 1661553210
ModificationTime: 1661620914
OS2TypoAscent: 0
OS2TypoAOffset: 1
OS2TypoDescent: 0
OS2TypoDOffset: 1
OS2TypoLinegap: 90
OS2WinAscent: 0
OS2WinAOffset: 1
OS2WinDescent: 0
OS2WinDOffset: 1
HheadAscent: 0
HheadAOffset: 1
HheadDescent: 0
HheadDOffset: 1
DEI: 91125
Encoding: ISO8859-1
UnicodeInterp: none
NameList: AGL For New Fonts
DisplaySize: -48
AntiAlias: 1
FitToEm: 0
WinInfo: 0 26 9
Grid
-1000 1200 m 0
 2000 1200 l 1024
-1000 1207.80004883 m 0
 2000 1207.80004883 l 1024
EndSplineSet
BeginChars: 256 44

StartChar: A
Encoding: 65 65 0
Width: 1000
VWidth: 0
Flags: H
LayerCount: 2
Fore
SplineSet
743 125 m 1049
540 549 m 1
 503.115234375 483.446289062 374.348632812 389.65234375 346 283 c 1
 377.053710938 204.833007812 510.986328125 196.740234375 646 169 c 1
 580.897460938 272.24609375 565.470703125 413.881835938 540 549 c 1
631 798 m 9
 685 777 l 1
 650.911564546 534.708659339 666.416992188 281.997070312 778 133 c 1
 810.137695312 90.0869140625 895 185 949 207 c 1
 909 -43 l 5
 182.274414062 -57.1572265625 345.86987429 161.541104582 34 249 c 1
 0 312 l 17
 233.829447272 431.897260213 419.133836046 638.746682662 631 798 c 9
EndSplineSet
Validated: 524321
EndChar

StartChar: B
Encoding: 66 66 1
Width: 1000
VWidth: 0
Flags: H
LayerCount: 2
Fore
SplineSet
214 764 m 1
 883 804 l 1
 781 750 l 25
 784 609 l 1
 860 396 l 1
 656.248046875 147.126953125 495.873463609 90.9673189422 262 0 c 1
 419.18166653 136.463535983 520.112304688 247.499023438 656 438 c 1
 513 490 l 1
 595 636 l 1
 356 626 l 1
 217.244140625 402.537109375 272.449126723 293.790050381 264 124 c 1
 200 270 l 1
 166 372 93.4443359375 471.524414062 158 626 c 1
 214 764 l 1
EndSplineSet
Validated: 524321
EndChar

StartChar: C
Encoding: 67 67 2
Width: 1000
VWidth: 0
Flags: H
LayerCount: 2
Fore
SplineSet
781 798 m 1
 820 528 l 17
 728.961837008 617.173522922 652.492948408 615.351030001 604 615 c 1
 555.188399508 595.804104944 557.437212818 608.861922837 430 540 c 1
 374.499451824 471.008665923 370.950670603 416.238144559 373 363 c 1
 382.784788001 327.953984108 389.463027584 291.400084998 415 264 c 1
 447.041389765 227.974290111 486.070268938 200.439786843 526 174 c 1
 607.33289469 177.705475539 681.56895437 190.541891579 739 225 c 1
 763.337897027 253.180428783 795.607421875 292.346679688 788 336 c 9
 946 18 l 1
 235 15 l 25
 31 261 l 25
 454 801 l 25
 781 798 l 1
EndSplineSet
Validated: 524321
EndChar

StartChar: D
Encoding: 68 68 3
Width: 1000
VWidth: 0
Flags: H
LayerCount: 2
Fore
SplineSet
382 627 m 5
 477.405350614 636.961131769 566.57200496 632.633223763 646 606 c 5
 698.997631998 571.999896159 725.997631986 529.999896167 727 480 c 5
 652.999999998 420.719215546 579.000000002 366.137061481 505 348 c 5
 441.91341883 428.630002468 419.18593172 531.863860647 382 627 c 5
214 807 m 1
 281.215574832 609.026846087 337.948242188 456.5546875 358 243 c 1
 341.046875 177 316 84 214 0 c 1
 434.662643721 94.3938659446 742.815467397 160.560659501 874 342 c 1
 872.254333247 456.924734685 872.906349501 571.898607433 793 687 c 1
 618.922330318 755.334488261 409.534961818 770.795877393 214 807 c 1
EndSplineSet
Validated: 524329
EndChar

StartChar: zero
Encoding: 48 48 4
Width: 1000
VWidth: 0
Flags: HW
LayerCount: 2
Fore
SplineSet
379 210 m 5
 415.884765625 275.553710938 544.651367188 369.34765625 573 476 c 5
 541.946289062 554.166992188 408.013671875 562.259765625 273 590 c 5
 338.102539062 486.75390625 353.529296875 345.118164062 379 210 c 5
288 -39 m 13
 234 -18 l 21
 277.90625 294.07421875 193.383789062 523.896484375 0 684 c 13
 54 798 l 21
 780.725585938 812.157226562 573.129882812 597.458984375 885 510 c 13
 919 447 l 21
 685.170898438 327.102539062 499.866210938 120.252929688 288 -39 c 13
EndSplineSet
Validated: 524321
EndChar

StartChar: one
Encoding: 49 49 5
Width: 1000
VWidth: 0
Flags: H
LayerCount: 2
Fore
SplineSet
293 636 m 1
 413 798 l 1
 522.048828125 742.670898438 633.291992188 694.232421875 779 754 c 1
 583.059570312 315.342773438 405 144 135 -54 c 1
 233.199958911 179.269842827 701.015625 623.008789062 293 636 c 1
EndSplineSet
Validated: 524321
EndChar

StartChar: two
Encoding: 50 50 6
Width: 1000
VWidth: 0
Flags: H
LayerCount: 2
Fore
SplineSet
750 708 m 1
 551.7734375 436.294921875 355.040990993 163.694054437 70 -56 c 1
 908 0 l 17
 849.999023438 56.142578125 805.24609375 116.279296875 852 204 c 1
 752 224 710.923828125 97.1171875 552 176 c 1
 830.461914062 409.112304688 812 510 750 708 c 1
50 588 m 1
 260.171875 740.889648438 446.274414062 719.310546875 636 724 c 1
 384 322 l 1
 342.864378856 378.950010905 297.682031665 433.979032442 322 522 c 1
 302.145531135 588.473045938 137.788085938 571.725585938 50 588 c 1
EndSplineSet
Validated: 524329
EndChar

StartChar: three
Encoding: 51 51 7
Width: 1000
VWidth: 0
Flags: H
LayerCount: 2
Fore
SplineSet
209 534 m 25
 151 694 l 1
 435 802 l 17
 573.551858287 705.583758244 743.17001258 674.568901465 913 644 c 9
 675 502 l 17
 755.531517157 394.067583699 871.735758789 331.150693053 983 262 c 1
 799.590137211 68.0726227232 550.320719562 1.05983175903 299 -62 c 9
 275 -12 l 17
 389.242991478 99.651705503 590.247801248 133.894364523 565 370 c 1
 521.158240899 361.420736536 489.126230128 334.701444018 405 388 c 1
 443.984834421 465.333333329 463.464419918 542.666666671 469 620 c 1
 419 644 391 650 327 642 c 1
 317 504 l 1
 209 534 l 25
EndSplineSet
Validated: 524321
EndChar

StartChar: four
Encoding: 52 52 8
Width: 1000
VWidth: 0
Flags: H
LayerCount: 2
Fore
SplineSet
545 655 m 1
 594.251953125 614.059570312 626.535356764 582.994582021 649 532 c 1
 622.152092044 524.362465229 600.46782117 506.398150596 569 508 c 1
 685 299 403 83 363 -174 c 1
 773 153 845 197 819 570 c 1
 751.67453906 632.224359703 683.753753998 693.982869083 643 777 c 1
 545 655 l 1
129 278 m 1
 179 551 261 649 401 800 c 1
 384.845437498 675.862338941 348.577945052 585.911017691 357 420 c 1
 519 481 l 1
 523.155273438 413.810546875 499 297 441 213 c 5
 325.774414062 274.217773438 249.445935229 316.731885541 129 278 c 1
EndSplineSet
Validated: 524329
EndChar

StartChar: five
Encoding: 53 53 9
Width: 1000
VWidth: 0
Flags: HW
LayerCount: 2
Fore
SplineSet
763 -48 m 1
 611 252 227 500 99 800 c 5
 369.123436235 726.956971252 640.367166155 661.536484963 921 660 c 5
 862.999023438 603.857421875 818.24609375 543.720703125 865 456 c 1
 765 436 652.923828125 605.8828125 494 527 c 1
 772.461914062 293.887695312 825 150 763 -48 c 1
65 116 m 1
 275.171875 -36.8896484375 509.274414062 -31.310546875 699 -36 c 1
 397 338 l 1
 355.864257812 281.049804688 310.681640625 226.020507812 335 138 c 1
 315.145507812 71.52734375 152.788085938 132.274414062 65 116 c 1
EndSplineSet
Validated: 524329
EndChar

StartChar: six
Encoding: 54 54 10
Width: 1000
VWidth: 0
Flags: H
LayerCount: 2
Fore
SplineSet
593 458 m 5
 775.553754773 399.634077737 711.877669026 311.875117534 731 234 c 5
 791.769691849 297.151429411 866.401557289 330.655293496 885 484 c 5
 806.689668022 520.661868585 723.714529145 548.31729245 619 534 c 5
 614.333298683 513.999999978 605.666632052 488.666666651 593 458 c 5
391 798 m 21
 319.471785638 573.459926739 252.092175299 344.029197118 97 218 c 5
 224.141633034 217.965971551 242.6479141 73.0861039331 315 0 c 13
 749 0 l 21
 732.713378706 83.363761731 807.900923302 144.525431489 923 196 c 5
 153.493271828 4.07794463073 523.10136606 461.10798493 573 736 c 13
 391 798 l 21
EndSplineSet
Validated: 524329
EndChar

StartChar: seven
Encoding: 55 55 11
Width: 1000
VWidth: 0
Flags: H
LayerCount: 2
Fore
SplineSet
531 754 m 9
 487 560 l 17
 324.66111443 629.66839914 198.925621587 589.55347888 61 586 c 1
 172.526774339 666.915517892 293.624170191 742.548413712 531 754 c 9
753 722 m 17
 807.98726079 692.984100474 865.419125792 672.414431619 931 680 c 1
 766.302704276 434.580857328 689.336704848 150.153640056 399 -72 c 1
 472.686037402 172.253337396 611.646484375 370.727539062 581 728 c 1
 611.940429688 684.315429688 641.77513444 611.083006531 699 626 c 1
 753 722 l 17
EndSplineSet
Validated: 524321
EndChar

StartChar: eight
Encoding: 56 56 12
Width: 1000
VWidth: 0
Flags: H
LayerCount: 2
Fore
SplineSet
47 476 m 9
 367 412 l 1
 203.075263793 383.184193516 97.9305957034 324.015521089 99 210 c 9
 69 222 l 1
 35.5801338342 298.46532015 29.5353215195 383.537085012 47 476 c 9
365 314 m 9
 593 318 l 17
 724.111777945 287.897661498 822.415061637 246.7438259 821 172 c 1
 703.420637111 117.25723175 511.55591361 126.600365265 519 -36 c 9
 149 0 l 17
 196.687136379 46.6666666684 193.552315269 93.3333333317 101 140 c 1
 237.551955281 154.201436741 364.707800392 176.879074352 365 314 c 9
833 584 m 9
 917 542 l 17
 940.762665395 460.250391636 938.380004541 382.446312048 927 306 c 9
 567 360 l 17
 685.757539868 398.84343575 821.804714794 417.10353432 833 584 c 9
317 798 m 25
 761 780 l 25
 843 660 l 17
 623.402042838 645.614428986 421.438135834 620.269098479 443 456 c 9
 275 460 l 25
 63 666 l 25
 317 798 l 25
EndSplineSet
Validated: 524321
EndChar

StartChar: nine
Encoding: 57 57 13
Width: 1000
VWidth: 0
Flags: HW
LayerCount: 2
Fore
SplineSet
593 340 m 5
 775.553710938 398.366210938 711.877929688 486.125 731 564 c 5
 791.76953125 500.848632812 866.401367188 467.344726562 885 314 c 5
 806.689453125 277.337890625 723.71484375 249.682617188 619 264 c 5
 614.333007812 284 605.666992188 309.333007812 593 340 c 5
391 0 m 21
 319.471679688 224.540039062 252.091796875 453.970703125 97 580 c 5
 224.141601562 580.034179688 242.647460938 724.9140625 315 798 c 13
 749 798 l 21
 732.712890625 714.63671875 807.901367188 653.474609375 923 602 c 5
 153.493164062 793.921875 523.1015625 336.891601562 573 62 c 13
 391 0 l 21
EndSplineSet
Validated: 524321
EndChar

StartChar: colon
Encoding: 58 58 14
Width: 1000
VWidth: 0
Flags: HW
LayerCount: 2
Fore
SplineSet
454 668 m 1
 458.73212999 623.216169205 446.029835407 579.495087464 364 540 c 1
 416.666665821 543.333297858 450.666665806 518.666631211 466 466 c 1
 502.962352089 525.140004177 569.587729142 513.361173151 626 526 c 1
 558.173366074 560.714757376 490.551693138 595.675987804 454 668 c 1
468 210 m 9
 380 84 l 17
 445.882285483 115.969271892 471.571812507 65.4371093525 490 0 c 9
 626 138 l 17
 566.543875747 154.832383849 479.240888322 142.266892586 468 210 c 9
EndSplineSet
Validated: 524329
EndChar

StartChar: semicolon
Encoding: 59 59 15
Width: 1000
VWidth: 0
Flags: HW
LayerCount: 2
Fore
SplineSet
454 668 m 1
 458.73212999 623.216169205 446.029835407 579.495087464 364 540 c 1
 416.666665821 543.333297858 450.666665806 518.666631211 466 466 c 1
 502.962352089 525.140004177 569.587729142 513.361173151 626 526 c 1
 558.173366074 560.714757376 490.551693138 595.675987804 454 668 c 1
474 268 m 5
 374.203555983 241.594528309 513.289087736 156.934320489 380 84 c 5
 511.345916646 109.927899616 472.225794402 -13.1448222267 441 -74 c 9
 626 138 l 1
 566.543875747 154.832383849 485.241210938 200.266601562 474 268 c 5
EndSplineSet
Validated: 524329
EndChar

StartChar: less
Encoding: 60 60 16
Width: 1000
VWidth: 0
Flags: H
LayerCount: 2
Fore
SplineSet
259 474 m 1
 363.038085938 535.713867188 431.465820312 681.290039062 513 796 c 1
 509.0078125 693.250976562 520.280273438 597.65625 429 454 c 1
 370.775390625 252.122070312 480.983398438 101.110351562 503 -46 c 1
 401.782226562 89.2177734375 279.983398438 272.365234375 259 474 c 1
EndSplineSet
Validated: 524321
EndChar

StartChar: equal
Encoding: 61 61 17
Width: 1000
VWidth: 0
Flags: HW
LayerCount: 2
Fore
SplineSet
260 311 m 5
 246 199 l 5
 526 203 619.336914062 259.115234375 778 275 c 5
 634.359375 328.315429688 426 273 260 311 c 5
254 401 m 5
 424.73828125 458.7421875 592.478515625 572.239257812 768 541 c 13
 726 405 l 5
 590.495117188 480.767578125 412.696289062 407.147460938 254 401 c 5
EndSplineSet
Validated: 524329
EndChar

StartChar: greater
Encoding: 62 62 18
Width: 1000
VWidth: 0
Flags: HW
LayerCount: 2
Fore
SplineSet
758 474 m 1
 653.961914062 535.713867188 585.534179688 681.290039062 504 796 c 1
 507.9921875 693.250976562 496.719726562 597.65625 588 454 c 1
 646.224609375 252.122070312 526.016601562 101.110351562 504 -46 c 5
 605.217773438 89.2177734375 737.016601562 272.365234375 758 474 c 1
EndSplineSet
Validated: 524329
EndChar

StartChar: question
Encoding: 63 63 19
Width: 1000
VWidth: 0
Flags: H
LayerCount: 2
Fore
SplineSet
338 19 m 1
 373.333007812 -36.775390625 482.666992188 -13.1298828125 518 -13 c 1
 481.193770098 2.53831460835 432.15092085 -93.1289966743 478 -123 c 1
 361 -108 l 1
 438.557765691 -63.4749313771 347.040039062 -16.087890625 338 19 c 1
229 582 m 1
 253.410565026 655.438798061 261.850385309 728.908263735 467 802 c 1
 656.812673622 704.840454117 697.013133013 621.129758119 753 536 c 1
 502.106006229 326.693118632 580.266774265 190.800554684 493 18 c 9
 379 32 l 17
 575.478605051 393.387989222 694 723 229 582 c 1
EndSplineSet
Validated: 524325
EndChar

StartChar: at
Encoding: 64 64 20
Width: 1000
VWidth: 0
Flags: HW
LayerCount: 2
Fore
SplineSet
810 113 m 1053
486 383 m 25
 528 269 l 25
 430 333 l 25
 486 383 l 25
564 537 m 1
 525.521484375 467.400390625 364.990234375 331.251953125 320 317 c 1
 394.668945312 324.2734375 554.73828125 201.671875 594 163 c 1
 540.922851562 228.142578125 556.358398438 446.456054688 564 537 c 1
592 635 m 1
 555.115234375 569.446289062 286.348632812 419.65234375 258 313 c 1
 289.053710938 234.833007812 536.986328125 108.740234375 672 81 c 1
 606.897460938 184.24609375 617.470703125 499.881835938 592 635 c 1
631 798 m 9
 685 777 l 1
 649.989104434 528.152063402 703.609375 269.603515625 822 119 c 1
 852.080078125 80.7353515625 922 135 966 195 c 1
 948 -23 l 1
 221.274414062 -37.1572265625 345.86987429 161.541104582 34 249 c 1
 0 312 l 17
 233.829447272 431.897260213 419.133836046 638.746682662 631 798 c 9
EndSplineSet
Validated: 524329
EndChar

StartChar: E
Encoding: 69 69 21
Width: 1000
VWidth: 0
Flags: HW
LayerCount: 2
Fore
SplineSet
925 534 m 29
 983 694 l 5
 699 802 l 21
 560.448242188 705.583984375 390.830078125 674.569335938 221 644 c 13
 459 502 l 21
 378.46875 394.067382812 262.264648438 331.150390625 151 262 c 5
 334.41015625 68.072265625 583.6796875 1.0595703125 835 -62 c 13
 859 -12 l 21
 744.756835938 99.6513671875 543.751953125 133.89453125 569 370 c 5
 612.841796875 361.420898438 644.874023438 334.701171875 729 388 c 5
 690.015625 465.333007812 670.53515625 542.666992188 665 620 c 5
 715 644 743 650 807 642 c 5
 817 504 l 5
 925 534 l 29
EndSplineSet
Validated: 524329
EndChar

StartChar: F
Encoding: 70 70 22
Width: 1000
VWidth: 0
Flags: HW
LayerCount: 2
Fore
SplineSet
923 539 m 1
 981 699 l 1
 697 807 l 1
 558.448242188 710.583984375 530.830078125 728.569335938 361 698 c 1
 361 698 l 1
 557.758475814 544.612733231 401.662332557 344.95389846 289 276 c 1
 472.41015625 82.072265625 242.6796875 2.0595703125 494 -61 c 1
 530 -7 l 1
 430 124 523.751953125 89.89453125 549 326 c 1
 580.768554688 319.783203125 672 356 830 250 c 1
 860.892578125 251.666992188 833.390625 351.543945312 894 379 c 1
 748 537 605.53515625 421.666992188 600 499 c 1
 650 523 741 655 805 647 c 1
 870 627 l 1
 923 539 l 1
EndSplineSet
Validated: 524325
EndChar

StartChar: G
Encoding: 71 71 23
Width: 1000
VWidth: 0
Flags: H
LayerCount: 2
Fore
SplineSet
527 788 m 1
 144.409179688 467.459960938 389 210 163 -38 c 5
 484.408203125 -21.9013671875 673.190170575 4.13673607229 840 66 c 1
 934 320 l 17
 824.526184975 227.813556622 748.436138831 321.090065273 664 368 c 1
 606 282 l 25
 724 200 l 1
 608.666659638 159.026415231 563.333007812 165.958007812 448 223 c 1
 447 418 369 472 710 638 c 1
 785.146113361 645.196557371 826.098303369 532.719394161 954 672 c 1
 972 792 l 1
 777.439388148 691.736043304 678.688476562 771.811523438 527 788 c 1
EndSplineSet
Validated: 524329
EndChar

StartChar: H
Encoding: 72 72 24
Width: 1000
VWidth: 0
Flags: H
LayerCount: 2
Fore
SplineSet
143 670 m 1
 276.653320312 438 242.3203125 322 209 90 c 1
 309 28 l 1
 360.041015625 177.94140625 395 182 421 344 c 1
 601 360 l 1
 626.391601562 188.751953125 838.372070312 84.43359375 911 34 c 1
 971 92 l 1
 817 286 661.362358645 481.118677289 753 800 c 1
 621 804 l 17
 595.351296814 694.805481627 548.025593636 575.693000987 565 486 c 9
 397 470 l 17
 273.027537179 614.760260552 321 642 317 806 c 1
 143 670 l 1
EndSplineSet
Validated: 524329
EndChar

StartChar: I
Encoding: 73 73 25
Width: 1000
VWidth: 0
Flags: H
LayerCount: 2
Fore
SplineSet
435 802 m 1
 484.203500859 763.075852365 533.719231072 724.728759604 609 734 c 1
 436.91070623 397.827952238 490.42778217 192.557351308 459 -62 c 1
 421.083664885 211.098286652 360.380557425 472.846187357 435 802 c 1
EndSplineSet
Validated: 524321
EndChar

StartChar: T
Encoding: 84 84 26
Width: 1000
VWidth: 0
Flags: H
LayerCount: 2
Fore
SplineSet
259 637 m 1
 336.41015625 605.0546875 516.294921875 500.806640625 603 489 c 1
 705.177734375 259.782226562 537.212334236 125.268346338 535 -72 c 1
 497.359426266 173.436345197 411.283203125 443.674804688 259 637 c 1
129 800 m 1
 351.324736995 734.889369301 558.635570328 631.135448341 847 736 c 1
 813.313347605 670.561911814 819.876953125 579.600585938 831 451 c 1
 613.053710938 506.158203125 336.279782364 660.979796286 129 800 c 1
EndSplineSet
Validated: 524321
EndChar

StartChar: N
Encoding: 78 78 27
Width: 1000
VWidth: 0
Flags: HW
LayerCount: 2
Fore
SplineSet
523 240 m 1049
603 728 m 1
 776.146484375 520.549804688 775.25 258.830078125 869 0 c 1
 837.646484375 227.524414062 1008.99121094 481.327148438 881 718 c 1
 779.563476562 695.641601562 683.670898438 692.8984375 603 728 c 1
265 804 m 1
 347.262353599 770.904229321 432.054293594 740.600878641 551 748 c 1
 424.497070312 522.303710938 360.759765625 230.405273438 311 -32 c 1
 313 286 176.974609375 388.1484375 265 804 c 1
EndSplineSet
Validated: 524329
EndChar

StartChar: O
Encoding: 79 79 28
Width: 1000
VWidth: 0
Flags: HW
LayerCount: 2
Fore
SplineSet
540 210 m 5
 503.115234375 275.553710938 374.348632812 369.34765625 346 476 c 5
 377.053710938 554.166992188 510.986328125 562.259765625 646 590 c 5
 580.897460938 486.75390625 565.470703125 345.118164062 540 210 c 5
631 -39 m 13
 685 -18 l 21
 641.09375 294.07421875 725.616210938 523.896484375 919 684 c 13
 865 798 l 21
 138.274414062 812.157226562 345.870117188 597.458984375 34 510 c 13
 0 447 l 21
 233.829101562 327.102539062 419.133789062 120.252929688 631 -39 c 13
EndSplineSet
Validated: 524329
EndChar

StartChar: M
Encoding: 77 77 29
Width: 1000
VWidth: 0
Flags: HW
LayerCount: 2
Fore
SplineSet
531 624 m 1
 582.011228283 589.155379863 612.941089927 496.538213322 687 528 c 1
 573 124 l 17
 551.577148438 274 616.717308943 474 531 624 c 1
523 240 m 1049
603 728 m 1
 776.146484375 520.549804688 775.25 258.830078125 869 0 c 1
 837.646484375 227.524414062 1008.99121094 481.327148438 881 718 c 1
 779.563476562 695.641601562 683.670898438 692.8984375 603 728 c 1
265 804 m 1
 347.262353599 770.904229321 432.054293594 740.600878641 551 748 c 1
 424.497070312 522.303710938 360.759765625 230.405273438 311 -32 c 1
 313 286 176.974609375 388.1484375 265 804 c 1
EndSplineSet
Validated: 524329
EndChar

StartChar: L
Encoding: 76 76 30
Width: 1018
VWidth: 0
Flags: H
LayerCount: 2
Fore
SplineSet
428 214 m 1
 462.755859375 127.76953125 409.870117188 55.5439453125 358 0 c 1
 580.192382812 27.8154296875 784 116 946 238 c 1
 776 202 606.6875 109.315429688 428 214 c 1
338 800 m 1
 382.486328125 759.423828125 479.655273438 712.168945312 570 734 c 1
 393.572265625 492 391.047851562 244 344 2 c 1
 320.885742188 266.092773438 116.642578125 507.971679688 338 800 c 1
EndSplineSet
Validated: 524329
EndChar

StartChar: P
Encoding: 80 80 31
Width: 1000
VWidth: 0
Flags: HW
LayerCount: 2
Fore
SplineSet
379 478 m 1
 561.553710938 536.366210938 827.877929688 576.125 847 654 c 1
 809 550 853 562 769 414 c 1
 690.689453125 377.337890625 449.71484375 377.682617188 345 392 c 1
 340.333007812 412 365 440 379 478 c 1
195 0 m 1
 123.471679688 224.540039062 252.091796875 453.970703125 97 580 c 1
 224.141601562 580.034179688 242.647460938 724.9140625 315 798 c 1
 855 794 l 1
 838.712890625 710.63671875 775 660 691 642 c 1
 125 592 317.1015625 298.891601562 367 24 c 1
 195 0 l 1
EndSplineSet
Validated: 524325
EndChar

StartChar: R
Encoding: 82 82 32
Width: 1000
VWidth: 0
Flags: HW
LayerCount: 2
Fore
SplineSet
439 358 m 1049
439 344 m 1
 478.204101562 236.524414062 465.354492188 107.3203125 651 46 c 1
 727.716796875 44.0947265625 850.655273438 96.1357421875 885 120 c 5
 753 172 531.4375 229.206054688 439 344 c 1
379 478 m 1
 561.553710938 536.366210938 827.877929688 576.125 847 654 c 1
 809 550 853 562 769 414 c 1
 690.689453125 377.337890625 449.71484375 377.682617188 345 392 c 1
 340.333007812 412 365 440 379 478 c 1
195 0 m 1
 123.471679688 224.540039062 252.091796875 453.970703125 97 580 c 1
 224.141601562 580.034179688 242.647460938 724.9140625 315 798 c 1
 855 794 l 1
 838.712890625 710.63671875 775 660 691 642 c 1
 125 592 317.1015625 298.891601562 367 24 c 1
 195 0 l 1
EndSplineSet
Validated: 524325
EndChar

StartChar: Q
Encoding: 81 81 33
Width: 1000
VWidth: 0
Flags: HW
LayerCount: 2
Fore
SplineSet
564 238 m 5
 555.231445312 144.611328125 584.959960938 -29.919921875 667 -62 c 1
 758.378291828 -55.2336966328 802.659282039 10.1544098544 853 68 c 5
 730.572719053 98.3715818765 643.784770118 133.114270345 564 238 c 5
629 460 m 1
 563.446289062 423.115234375 469.65234375 294.348632812 363 266 c 1
 284.833007812 297.053710938 276.740234375 430.986328125 249 566 c 1
 352.24609375 500.897460938 493.881835938 485.470703125 629 460 c 1
878 551 m 9
 857 605 l 17
 544.92578125 561.09375 315.103515625 645.616210938 155 839 c 9
 41 785 l 17
 26.8427734375 58.2744140625 241.541015625 265.870117188 329 -46 c 9
 392 -80 l 17
 511.897460938 153.829101562 718.747070312 339.133789062 878 551 c 9
EndSplineSet
Validated: 524325
EndChar

StartChar: S
Encoding: 83 83 34
Width: 1000
VWidth: 0
Flags: H
LayerCount: 2
Fore
SplineSet
294 600 m 1
 752 324 l 1
 668.076171875 259.481445312 621 186 657 74 c 1
 451.830078125 -17.0478515625 333 20 112 16 c 1
 231 156 l 1
 393.72265625 151.254882812 375 208 431 246 c 1
 441 332 l 1
 402.459960938 407.459960938 279.9921875 565.516601562 120 608 c 1
 294 600 l 1
784 800 m 1
 719 560 l 1
 545.7265625 630.828125 353.853515625 631.91796875 112 634 c 1
 273.412109375 682.805664062 414.205078125 800.68359375 784 800 c 1
EndSplineSet
Validated: 524321
EndChar

StartChar: J
Encoding: 74 74 35
Width: 1000
VWidth: 0
Flags: HW
LayerCount: 2
Fore
SplineSet
138 482 m 5
 197.151367188 457.919921875 292 418 380 420 c 5
 358.791992188 212.254882812 410.565429688 135.48828125 522 0 c 5
 323.254882812 109.706054688 215.192382812 292.752929688 138 482 c 5
524 802 m 5
 573.203125 763.076171875 622.71875 724.728515625 698 734 c 5
 525.911132812 397.828125 579.427734375 192.557617188 548 -62 c 5
 510.083984375 211.098632812 449.380859375 472.845703125 524 802 c 5
EndSplineSet
Validated: 524321
EndChar

StartChar: K
Encoding: 75 75 36
Width: 1000
VWidth: 0
Flags: HW
LayerCount: 2
Fore
SplineSet
465 350 m 1
 559.657150893 215.433089588 698.999226498 173.167444793 835 124 c 1
 717.462298769 127.54437995 677.929992427 61.8091804016 661 -24 c 1
 560.078618012 68.8664027371 500.37378003 198.562500476 465 350 c 1
471 420 m 1
 582.459945438 495.965564165 662.457589961 598.0878146 697 738 c 1
 721.462585582 653.009283657 801.017767121 638.942401176 883 628 c 1
 782.896068514 507.519672575 656.15195342 423.638518007 471 420 c 1
348 802 m 1
 397.203125 763.076171875 446.71875 724.728515625 522 734 c 1
 349.911132812 397.828125 403.427734375 192.557617188 372 -62 c 1
 334.083984375 211.098632812 273.380859375 472.845703125 348 802 c 1
EndSplineSet
Validated: 524321
EndChar

StartChar: W
Encoding: 87 87 37
Width: 1000
VWidth: 0
Flags: HW
LayerCount: 2
Fore
SplineSet
531 148 m 1
 582.010742188 182.844726562 612.94140625 275.461914062 687 244 c 1
 573 648 l 17
 551.577148438 498 616.717773438 298 531 148 c 1
523 532 m 1049
603 44 m 1
 776.146484375 251.450195312 775.25 513.169921875 869 772 c 1
 837.646484375 544.475585938 1008.99121094 290.672851562 881 54 c 1
 779.563476562 76.3583984375 683.670898438 79.1015625 603 44 c 1
265 -32 m 1
 347.262695312 1.095703125 432.0546875 31.3994140625 551 24 c 1
 424.497070312 249.696289062 360.759765625 541.594726562 311 804 c 1
 313 486 176.974609375 383.8515625 265 -32 c 1
EndSplineSet
Validated: 524329
EndChar

StartChar: V
Encoding: 86 86 38
Width: 1000
VWidth: 0
Flags: HW
LayerCount: 2
Fore
SplineSet
540 44 m 5
 713.146484375 251.450195312 712.25 513.169921875 806 772 c 5
 774.646484375 544.475585938 859 285 710 54 c 5
 608.563476562 76.3583984375 620.670898438 79.1015625 540 44 c 5
374 0 m 5
 456.262695312 33.095703125 421.0546875 51.3994140625 540 44 c 5
 404.90625 267.564453125 503 585 115 723 c 5
 321.959960938 475.172851562 204.698242188 390.065429688 374 0 c 5
EndSplineSet
Validated: 524325
EndChar

StartChar: U
Encoding: 85 85 39
Width: 1000
VWidth: 0
Flags: H
LayerCount: 2
Fore
SplineSet
263 802 m 1
 313 680 l 1
 237.894921527 505.556083276 289.657771555 382.615723869 357 266 c 1
 442.163085938 229.08203125 461.44921875 184.57421875 636 244 c 1
 748 300 728 328 732 392 c 1
 718 494 694 592 620 724 c 5
 701.421797439 659.430856225 775.40698419 562.276840844 882 608 c 5
 855.392578125 437.750976562 902.485503781 311.836576911 753 102 c 1
 598.409494293 31.46975157 520.670898438 -17.8701171875 345 16 c 1
 299 28 209 90 181 158 c 1
 134.334960938 340.666992188 171.001953125 507.333007812 263 802 c 1
EndSplineSet
Validated: 524321
EndChar

StartChar: X
Encoding: 88 88 40
Width: 1000
VWidth: 0
Flags: H
LayerCount: 2
Fore
SplineSet
142 250 m 5
 156.600585938 141.130859375 214.286132812 86.0556640625 284 46 c 5
 435.453125 271.665039062 585.247070312 498.784179688 872 606 c 5
 617.5 505.459960938 328.24609375 461.333984375 142 250 c 5
232 802 m 5
 256.181640625 508.59765625 366.133789062 245.485351562 526 0 c 5
 643.509765625 7.7607421875 741.727539062 42.3125 806 124 c 5
 487.682617188 297.173828125 293.916992188 522.162109375 232 802 c 5
EndSplineSet
Validated: 524293
EndChar

StartChar: Y
Encoding: 89 89 41
Width: 1000
VWidth: 0
Flags: H
LayerCount: 2
Fore
SplineSet
331 418 m 1
 369.109954126 371.834192042 437.775390625 332.43359375 542 356 c 1
 538 188 556 146 601 12 c 1
 440.280578803 132.618967972 338.12862712 265.423883314 331 418 c 1
379 392 m 1
 587.901099625 424.788699882 591.206054688 628.108398438 664 780 c 1
 862 660 l 1
 723.70703125 550.940429688 538.581033992 391.240513562 379 392 c 1
88 712 m 1
 152.950195312 716.639648438 270.467773438 769.284179688 320 804 c 1
 314.19140625 624.993164062 350.246454107 551.343473047 415 452 c 1
 282.185526806 531.002760391 151.877929688 606.6875 88 712 c 1
EndSplineSet
EndChar

StartChar: Z
Encoding: 90 90 42
Width: 1000
VWidth: 0
Flags: H
LayerCount: 2
Fore
SplineSet
451 230 m 1
 427.666992188 142.001953125 401 93.3349609375 327 64 c 1
 563.141865589 -13.3882540108 805 26 967 66 c 1
 881 80 577 86 451 230 c 1
809 704 m 1
 636.905273438 522.225585938 423.744140625 397.74609375 157 310 c 1
 255 118 l 1
 550.924804688 327.696289062 684.81640625 504.374023438 809 704 c 1
111 752 m 1
 174.174804688 587.118164062 197 578 231 518 c 1
 425.62109375 658.40234375 564.588867188 688.788085938 785 720 c 1
 590.246034003 768.023039498 364.189453125 761.125 111 752 c 1
EndSplineSet
EndChar

StartChar: ordmasculine
Encoding: 186 186 43
Width: 1000
VWidth: 0
Flags: H
LayerCount: 2
Fore
SplineSet
453 686 m 1
 505 578 l 1
 389 580 l 1
 453 686 l 1
425 766 m 17
 397.326018921 723.599363205 384.783580698 668.138050983 329 650 c 1
 339.507546695 610.946575699 329 572 355 522 c 1
 398.366210938 476.071289062 454.541992188 482.315429688 493 472 c 1
 523.618164062 527.026367188 566.399320428 587.519659715 629 624 c 1
 598.085551051 648.041416105 554.327564272 654.082076852 559 728 c 9
 425 766 l 17
EndSplineSet
EndChar
